<svg width="1024" height="1024" viewBox="0 0 1024 1024" fill="none" xmlns="http://www.w3.org/2000/svg">
<g clip-path="url(#clip0_3_253)">
<mask id="mask0_3_253" style="mask-type:luminance" maskUnits="userSpaceOnUse" x="0" y="0" width="1024" height="1024">
<path d="M819.2 1024H204.8C91.7 1024 0 932.301 0 819.2V204.8C0 91.7 91.7 0 204.8 0H819.2C932.301 0 1024 91.7 1024 204.8V819.2C1024 932.301 932.301 1024 819.2 1024Z" fill="white"/>
</mask>
<g mask="url(#mask0_3_253)">
<path d="M1024 0H0V1024H1024V0Z" fill="#6E50E6"/>
<path d="M1024 0H0V1024H1024V0Z" fill="url(#paint0_linear_3_253)"/>
</g>
<mask id="mask1_3_253" style="mask-type:luminance" maskUnits="userSpaceOnUse" x="0" y="0" width="1024" height="1024">
<path d="M819.2 1024H204.8C91.7 1024 0 932.301 0 819.2V204.8C0 91.7 91.7 0 204.8 0H819.2C932.301 0 1024 91.7 1024 204.8V819.2C1024 932.301 932.301 1024 819.2 1024Z" fill="white"/>
</mask>
<g mask="url(#mask1_3_253)">
<path d="M289.964 571.642V609.123H238.244V768.002H192.524V609.123H167.424V571.262H192.524V557.023C192.524 535.042 197.804 518.743 208.385 508.123C218.964 497.503 234.044 492.201 253.604 492.201C261.603 492.201 268.464 492.702 274.224 493.702C279.964 494.702 285.344 495.943 290.344 497.442V535.662C285.845 534.162 281.544 532.982 277.424 532.102C273.304 531.222 268.744 530.783 263.744 530.783C246.243 530.783 237.504 540.782 237.504 560.762V571.622L289.964 571.642Z" fill="white"/>
<path d="M440.626 762.159C428.127 769.02 412.267 772.46 393.027 772.46C378.286 772.46 364.666 769.78 352.166 764.4C339.667 759.04 328.826 751.659 319.626 742.3C310.426 732.92 303.246 722.06 298.087 709.701C292.927 697.34 290.346 684.04 290.346 669.8C290.346 655.561 292.927 642.2 298.087 629.701C303.246 617.22 310.426 606.22 319.626 596.72C328.826 587.221 339.726 579.74 352.347 574.24C364.966 568.739 378.646 566 393.386 566C412.127 566 427.686 569.12 440.047 575.36C452.408 581.6 463.226 589.859 472.466 600.099L444.367 630.459C437.367 623.22 429.946 617.279 422.066 612.659C414.206 608.039 404.506 605.72 393.027 605.72C384.786 605.72 377.167 607.399 370.167 610.781C363.166 614.16 357.166 618.72 352.187 624.461C347.186 630.221 343.247 636.881 340.386 644.5C337.507 652.121 336.087 660.301 336.087 669.04C336.087 678.04 337.527 686.401 340.386 694.14C343.247 701.879 347.327 708.639 352.566 714.38C357.806 720.14 364.046 724.681 371.307 728.06C378.546 731.439 386.547 733.121 395.286 733.121C406.026 733.121 415.467 730.819 423.586 726.179C431.707 721.56 439.387 715.62 446.626 708.38L473.986 735.36C464.227 746.36 453.107 755.3 440.626 762.159Z" fill="white"/>
<path d="M638.282 736.898C634.541 744.639 629.342 751.078 622.722 756.198C616.101 761.318 608.301 765.198 599.301 767.819C590.302 770.438 580.682 771.757 570.442 771.757C556.201 771.757 541.782 769.258 527.161 764.259C512.541 759.259 499.001 751.898 486.502 742.158L506.742 711.438C517.482 719.439 528.401 725.498 539.522 729.618C550.642 733.737 561.321 735.797 571.561 735.797C581.301 735.797 588.861 733.858 594.241 729.998C599.601 726.118 602.301 720.937 602.301 714.439V713.699C602.301 709.959 601.121 706.698 598.742 703.959C596.361 701.218 593.122 698.778 589.002 696.659C584.881 694.538 580.121 692.657 574.761 691.039C569.381 689.418 563.822 687.738 558.082 685.978C550.841 683.739 543.521 681.238 536.162 678.479C528.781 675.738 522.161 672.177 516.302 667.798C510.422 663.438 505.621 658.058 501.882 651.678C498.142 645.319 496.261 637.379 496.261 627.877V627.139C496.261 617.897 498.061 609.518 501.702 602.037C505.322 594.538 510.322 588.178 516.702 582.918C523.082 577.678 530.562 573.678 539.181 570.917C547.802 568.178 556.981 566.798 566.723 566.798C579.202 566.798 591.822 568.799 604.581 572.798C617.322 576.798 628.942 582.298 639.421 589.279L621.442 621.497C611.942 615.759 602.322 611.198 592.582 607.819C582.841 604.438 573.841 602.758 565.602 602.758C556.861 602.758 550.041 604.639 545.181 608.378C540.301 612.118 537.881 616.877 537.881 622.618V623.358C537.881 626.857 539.122 629.918 541.621 632.539C544.122 635.158 547.442 637.539 551.561 639.657C555.681 641.778 560.421 643.779 565.801 645.658C571.161 647.538 576.722 649.338 582.482 651.099C589.721 653.338 596.962 655.978 604.221 658.958C611.461 661.959 618.021 665.637 623.901 670.019C629.762 674.399 634.582 679.698 638.322 685.938C642.061 692.179 643.942 699.798 643.942 708.799V709.557C643.901 720.037 642.022 729.159 638.282 736.898Z" fill="white"/>
<path d="M865.273 767.969H733.553V454.908C733.553 391.847 682.254 340.527 619.174 340.527V208.807C754.874 208.807 865.253 319.208 865.253 454.888V767.969H865.273Z" fill="white"/>
</g>
</g>
<defs>
<linearGradient id="paint0_linear_3_253" x1="-0.00318344" y1="-0.0122168" x2="1024.01" y2="1023.98" gradientUnits="userSpaceOnUse">
<stop stop-color="#2E008B" stop-opacity="0"/>
<stop offset="1" stop-color="#2E008B"/>
</linearGradient>
<clipPath id="clip0_3_253">
<rect width="1024" height="1024" fill="white"/>
</clipPath>
</defs>
</svg>
